<svg id="Layer_1" data-name="Layer 1" xmlns="http://www.w3.org/2000/svg" viewBox="0 0 1166.06 1161.32"><g id="frame"><g id="left"><path d="M0,7.32V1154.05c0,7.72,12,7.74,12,0V7.32C12-.4,0-.41,0,7.32Z"/></g><g id="bottom"><path d="M6.62,1161.32H1158.17c7.72,0,7.73-12,0-12H6.67c-7.72,0-7.73,12,0,12Z"/></g><g id="right"><path d="M1166.06,1153.12V177.33c0-7.73-12-7.74-12,0v975.79C1154.06,1160.84,1166.06,1160.85,1166.06,1153.12Z"/></g><g id="top"><path d="M955.85,0Q770.52.15,585.2.18T214.31.13Q110.73.13,7.14,0c-7.72,0-7.73,12,0,12q185.33.15,370.66.18t370.88,0q103.59,0,207.17-.13C963.58,12,963.59,0,955.85,0Z"/></g><g id="dot"><rect x="1046" y="41.25" width="59" height="59"/><path d="M1104.5,41.75v58h-58v-58h58m1-1h-60v60h60Z"/></g></g><path d="M435,297.91a88.36,88.36,0,0,1,4.12,23.25,126,126,0,0,1-1.87,24.75,443.63,443.63,0,0,1,83.64-5.66q42.36,1.13,77.25,12.75t57.75,35.25q22.88,23.63,26.63,61.87,2.25,33.75-8.63,60a392.57,392.57,0,0,1-25.12,50.25,70.9,70.9,0,0,0,2.25,12q1.49,5.26,0,13.5a20.38,20.38,0,0,1-9,5.25q-5.26,1.51-13.5.75A954.26,954.26,0,0,1,458.64,761q-94.89,73.13-210.37,127.12A77.26,77.26,0,0,1,243,915.5a92.13,92.13,0,0,1-13.5,24.37,66.9,66.9,0,0,1-18.38,16.5q-10.12,6-18.75,4.5t-15-12.37q-6.37-10.89-7.87-34.13-39-2.25-55.88-17.25T96,860.79q-.73-21.37,11.25-46.13a261.47,261.47,0,0,1,29.62-47.25,285.51,285.51,0,0,1,37.5-39.75q19.86-17.24,35.63-23.25a1400.77,1400.77,0,0,1,42-142.5q24-67.5,52.5-132.75-12,4.5-30.75,13.5a328.16,328.16,0,0,0-38.63,22.13A380.91,380.91,0,0,0,196.5,494a173.87,173.87,0,0,0-30.75,33.75q-12,17.63-14.63,36.75t10.13,37.87q-22.5-7.49-27.38-24t.38-35.25A133.73,133.73,0,0,1,151.5,506q12-18.37,22.5-28.88a286.14,286.14,0,0,1,34.87-30.75,459.46,459.46,0,0,1,41.25-27.75q21.38-12.74,42-23.25t37.88-18q10.49-11.25,19.5-30.37a193.51,193.51,0,0,1,20.62-34.5q11.63-15.36,27-21.75T435,297.91ZM168.77,865.66q3.73-12.75,10.5-43.12t17.25-66.38q-8.27,6-21,23.63a208.67,208.67,0,0,0-21.38,36.75q-8.62,19.13-7.12,34.12T168.77,865.66ZM534,597.16q-58.5,18-117.75,40.5t-106.5,53.25a237.78,237.78,0,0,1-8.25,30q-6,18-13.13,37.13t-13.5,37.12q-6.37,18-8.62,30a686.59,686.59,0,0,0,69-44.25q35.24-25.49,70.12-55.12t67.5-62.25Q505.53,630.92,534,597.16Zm23.25-34.5a220.12,220.12,0,0,1,18.37-26.25q10.86-13.5,20.63-28.12a123.7,123.7,0,0,0,15-31.13q5.24-16.49,1.5-35.25Q609,421.66,588.37,410t-48.75-17.25A303.58,303.58,0,0,0,480,387.16a474,474,0,0,0-56.25,3q-20.25,63.76-43.88,123.38t-47.6,120.37q52.49-21.74,107.62-40.12a1016.24,1016.24,0,0,1,117.38-31.13Z"/><path d="M989.27,452.41q-7.51,0-4.5-13.5T993,407q5.24-18.37,8.62-36.38t-2.62-27q-15-12-31.88-15a100.43,100.43,0,0,0-34.5,0,170.78,170.78,0,0,0-35.25,10.13q-17.62,7.14-32.62,13.87-40.5,18.76-81.75,57.75a567.82,567.82,0,0,0-76.13,89.25,577.52,577.52,0,0,0-58.87,108q-24,57.76-29.25,113.25-3.76,42,6.37,67.5t29.25,38.25q19.13,12.76,44.25,14.63a203.58,203.58,0,0,0,51.75-3,284.43,284.43,0,0,0,51.75-14.63A441.7,441.7,0,0,0,846,804.16a381.57,381.57,0,0,0,44.25-27.75,317.44,317.44,0,0,0,38.25-32.25q16.49-16.49,25.12-31.5t4.13-25.5a254.45,254.45,0,0,0-32.63-2.25,183.16,183.16,0,0,0-30.75,2.63,278.7,278.7,0,0,0-31.87,7.5q-16.51,4.89-36.75,11.62-9.76,3.76-26.63,12t-34.87,15a145.13,145.13,0,0,1-34.13,8.63q-16.14,1.88-24.37-7.13Q696,723.91,697.52,710a81.19,81.19,0,0,1,7.87-27,110,110,0,0,1,15.75-24,171.06,171.06,0,0,1,15.38-16.13q12-9,37.87-18.75a399.19,399.19,0,0,1,57.75-16.5A431.64,431.64,0,0,1,897.77,599q33.75-1.86,61.87,4.87t46.5,24q18.37,17.26,19.88,48.75a102.18,102.18,0,0,1-12.75,52.5,209.11,209.11,0,0,1-33,45,304.36,304.36,0,0,1-42,36.38q-22.5,16.14-39.75,27.37a354.87,354.87,0,0,1-48.38,25.5Q824.27,874.66,798,883.66t-51.38,15q-25.14,6-45.37,9.75-40.5,6.75-78.38-2.25t-65.25-33q-27.39-24-40.5-62.25t-4.12-90a631.4,631.4,0,0,1,17.62-72,421.84,421.84,0,0,1,28.5-69.37,549.59,549.59,0,0,1,42.75-69,786.87,786.87,0,0,1,58.88-71.63,461.39,461.39,0,0,1,55.87-51.37A510.14,510.14,0,0,1,781.89,344a422.12,422.12,0,0,1,70.5-31.5A331.67,331.67,0,0,1,924,296.41q10.49-.74,24.37-.75a166.37,166.37,0,0,1,27.38,2.25A105.61,105.61,0,0,1,1000.5,305q11.25,4.89,17.25,13.87a62.52,62.52,0,0,1,10.14,33.34,127.6,127.6,0,0,1-4.87,37.12A164.94,164.94,0,0,1,1008.39,425Q999,441.92,989.27,452.41Z"/></svg>